M48
;Layer_Color=9474304
;FILE_FORMAT=2:5
INCH,LZ
;TYPE=PLATED
T1F00S00C0.00787
T2F00S00C0.00984
T3F00S00C0.01181
T5F00S00C0.02756
T6F00S00C0.03150
T9F00S00C0.03543
T10F00S00C0.03937
T12F00S00C0.07874
T13F00S00C0.12598
;TYPE=NON_PLATED
T14F00S00C0.03150
T15F00S00C0.04724
T16F00S00C0.12598
%
T01
X0296063Y0163583
Y0167913
X0300394
Y0163583
X0118504Y0113189
Y0108858
Y0104528
Y0100197
Y0095866
Y0091535
X0114173
X0109843
Y0095866
X0114173
Y0100197
X0109843
Y0104528
X0114173
Y0108858
X0109843
Y0113189
X0114173
T02
X0033465Y0007874
X0192913Y0005906
X021063
X0222441
X0236221
X026565Y0040354
X0277854Y0040453
X0291732Y0040551
X030561Y0040256
X031624Y0040059
X0322835Y0149606
X0326772Y0147638
X0330709
X0334646
X0338583Y0149606
Y015748
X0322835
X0140748Y0115256
X0136909
X0088189Y0115748
X0084646
T03
X0005118Y0017913
X0038583Y0023228
X0045079Y0051772
X0057874Y0051673
X0066043Y0041831
X0068898
X0071949
X0076083Y004439
X0074213Y0049508
X0081988Y003248
X0093307Y0032677
X0092126Y0026378
X0100394Y0032283
X0104331Y0029528
X0110236Y0025984
X0111811Y0047933
X0123031Y0048228
X0126575Y0046457
X0125Y005315
X0131398Y0042421
X0145669Y0041535
X0143701Y0033465
X0153543
X0149213Y0027854
X0153543Y0052264
X0160433Y0052165
X0167323
X0186909Y004685
X0195886Y0046562
X0195768Y0050984
X0209055Y0049114
X020876Y0032087
X0198819Y0024705
X019252Y0028248
X0187008Y0031496
X0245472Y002874
X024941Y0025591
X0250394Y0042815
X0254331Y004124
X0252953Y004626
X0277264Y0047638
X0312008Y0053642
X0319882Y0051279
X0323327Y0044094
X0335138Y004126
X0351476Y004065
X0343701Y0050394
X0336417Y0056004
X033809Y0060532
X0317323Y0055216
X031565Y0076083
X0317717Y0081398
X0313609Y0083572
X0308661Y0078347
X0296457Y0088976
X0293504Y0091142
X0302854Y0096358
X0304921Y0103642
X0313681Y0105118
X0323425Y0106201
X0323327Y0101181
X0320177Y0112205
X0312894Y0121063
X0311516Y0137303
X0298721Y014065
X0296457Y0142815
X0293012Y0141339
X0289764Y0143799
X0283268Y0143602
X0271063Y0143504
X0271358Y0147835
X0273721Y0151969
X0273031Y0158169
X0285827Y0158268
X0286319Y0170669
X0282677Y0168504
X027874
X0277953Y0176378
X0270768Y0171161
X0268209Y0187106
X0275492Y0193307
X0260433Y0199213
X0256496Y0189075
X0254724Y015561
Y0141339
X0260925Y0139862
X0267717Y013563
X0265354Y0130118
X0257283Y013189
X0257382Y0125591
Y0119291
X0252756Y0114764
X0264862Y0102165
X0267618Y0097146
X0271161Y0086417
X027559Y0090551
X0279921Y0071555
X0264764Y0076181
X0263287Y0061221
X0263386Y0054823
X0268701Y0058071
X0252756Y0068602
X0285531Y0122638
X0303248Y0153347
X030561Y015689
X0308661Y016063
X0308563Y0164764
X0311837Y0166549
X0315551Y016752
X0315846Y0170768
X0307874Y0174409
X0298524Y0181201
Y0192913
X0326378Y0193405
X0335433Y0190256
X0343504Y0178051
X0338287Y0153248
X0350886Y0151969
X0348425Y0138878
X0344488Y0127461
X0342547Y0124716
X0350492Y0125
X0348622Y0121063
X0347441Y0098425
Y0084252
X0333465Y0137205
X0322933Y0153248
X0317028Y0181693
X0248031Y019685
X0231299Y0198819
X0226378Y0196358
X0219488Y0196161
X0225098Y0188484
X0233268Y0184055
X0232677Y0161516
X0221063Y0156004
X0215453Y015561
X0213013Y0147748
X0205709Y0146161
X0199606Y0151181
X0195768Y0155905
X0185925Y0156299
X0184941Y0160236
X0180512Y015374
X0172736Y0148917
X0168602Y0167421
X0177854Y016752
X0176476Y0177165
X0172638
X0183169Y0174311
X0188878Y0179724
X0153543Y0184055
X0133858
X0116634Y0183957
X0115354Y0191339
X0104331Y0197638
X0098425Y0184055
X0106398Y0164961
X0104035Y014626
X0104134Y0088091
X0110236Y0082677
X0114173
X011811
X0124606Y0084449
X0124705Y0087598
X0134547Y0092224
X0134843Y0095473
X013435Y009941
X0149409Y0098622
X0142224Y0088189
X0158957Y0087303
Y0071358
X0160827Y0060925
X0145785Y0065953
X0144291Y0068602
X0134153Y0071949
X0132793Y0064477
X0132382Y0060532
X012126Y0066043
X0128051Y0074803
X0106004Y0068602
X0102362Y0059055
Y0054134
X0096457
X0108268
X0111516Y0058858
X0184646Y0060827
X0199606Y0062205
X0199803Y0058071
X020374Y0070669
X0195472Y0071063
X0192028Y0071949
X0195571Y0075984
X0193799Y0079429
X0191339Y0081201
X0184941Y0084547
X017874Y0081201
X0207283Y0079429
X0217717Y0082579
X0225492Y0084547
X0219783Y0091929
X0215453Y0098819
X0209252Y0098327
X0201772Y0098032
X0200591Y0102559
X0196949Y0116142
X0195571Y0129134
X0200689Y0129921
X021063Y0129429
X0211024Y0133858
X0218525Y013574
X0219193Y0138681
X0225295Y0138386
X0229331Y0139173
X0235728Y0143602
X0246358Y0146063
X0244094Y0155217
X0245571Y0125984
X0233858Y0122047
X0232185Y0129921
X022559Y0120473
X022185Y0123622
X0220297Y0114774
X021752Y0114665
X0211614
X0210728Y0118799
X0227974Y0106113
X0231299Y0105807
X0235433Y0110335
X0243209Y0110138
X0245866Y0105905
X0249999Y0103543
X0240453Y0098425
X0228248Y0098327
X0229134Y0074705
X0232283Y0071555
X0236221Y0062205
X0221654
X0248031Y0070768
X024626Y0082874
X0240158Y0082677
X0193996Y0136024
X0191339Y0138681
X0159153Y013435
X0152461Y0125098
X0124409Y0205512
X0075787Y019685
X0061024Y0197835
X0056102
X0051181
X005315Y0193898
X0058071
Y0176181
X0054134
X0062008
X0065945
X007874Y0184055
X0074803Y0134843
X0047244Y013189
X0047146Y014065
X0047047Y0149606
X0047343Y0159646
X003937Y0155118
X0029429Y0154921
X0031496Y0148917
X0031201Y0131791
X0018602Y0135236
X0025492Y0120177
X0029528Y0095276
X0028642Y007441
X0040859Y0074418
X0041339Y007874
X0058071Y0084646
X0055118Y0087598
X0064961Y0091535
X0068898Y0082677
X007874Y0086614
Y0077756
X0082776Y0064764
X0089567Y0064665
X0094587Y006437
X0090551Y0054134
X0083661Y0058071
X0071752Y0066535
X0092716Y0089075
X0093602Y0102756
X0088189Y0103937
X0064961Y0110236
X0061024Y0117126
X0057087
X005315
X0021457Y0158563
X0016634Y0168898
X0007196Y0169305
X0013386Y0185925
X0018504Y0186319
X0031102Y0198622
X0012795Y0072736
X0009252Y0245669
X0034646Y0252756
X0034449Y0270669
X0070866Y0263779
X0079724Y0261811
Y0266732
Y0271654
Y025689
X0078347Y0210236
X0070866Y0215551
X011998Y0214764
X0160236Y0240158
X0174016Y0249902
X0181102Y0234154
X0192126Y0237402
X0200394Y0242913
X0205512Y0245276
X0211417Y0237795
X020935Y0228346
X022441Y0237795
X0222146Y0254429
X0239665
X0237205Y0246949
X0250984Y0254429
X0253642Y0218012
X0261811Y0224902
X0265059Y0225
X0339764Y0236221
Y0248819
T05
X0277658Y0131398
X0285531
X0293406
X0301279
X0309154
X0147638Y0201772
X0139764
X009252
X0084646
T06
X0005748Y0004921
X0015748
X0025748
X0170472Y0235827
T09
X028624Y0201811
X029624
X030624
X031624
X017126Y0116142
Y0096457
X0047244
Y0116142
X0035827Y0222835
X0016142
X029124Y0211811
X030124
X031124
X032124
X0319193Y025689
X0329035
X0287402
X027687
T10
X00125Y0081496
Y008937
Y0097244
Y0105118
T12
X0273031Y0225984
X0334449
T13
X0015748Y0047244
X0330709Y0169291
X0015748Y0259842
T14
X0169291Y0258465
X0188976
T15
X0204724Y0007874
Y0017717
X022441Y0037402
X0244094Y0017717
Y0007874
T16
X028124Y0237992
X032624
M30
