M48
;Layer_Color=9474304
;FILE_FORMAT=2:5
INCH,LZ
;TYPE=PLATED
T4F00S00C0.02165
T7F00S00C0.03150
T8F00S00C0.03346
T11F00S00C0.03937
;TYPE=NON_PLATED
%
G90
G05
T04
G00X0163878Y0270571
M15
G01Y0268012
M16
G00X019439Y0270571
M15
G01Y0268012
M16
T07
G00X0225787Y0017717
M15
G01X0223031
M16
G00X0234252Y003878
M15
G01Y0036024
M16
G00X0244094Y003878
M15
G01Y0036024
M16
G00X0214567Y003878
M15
G01Y0036024
M16
G00X0204724Y003878
M15
G01Y0036024
M16
T08
G00X0164469Y0255413
M15
G01Y0253248
M16
G00X0193799Y0255413
M15
G01Y0253248
M16
T11
G00X0119291Y0235039
M15
G01Y0237402
M16
G00X0136614Y022441
M15
G01X0138976
M16
G00X0136614Y0248031
M15
G01X0138976
M16
M17
M30
