G04 Layer_Color=16711935*
%FSLAX25Y25*%
%MOIN*%
G70*
G01*
G75*
%ADD127C,0.05524*%
%ADD128C,0.20485*%
%ADD129O,0.06706X0.10642*%
%ADD130C,0.06706*%
%ADD131O,0.05524X0.06706*%
%ADD132R,0.05524X0.05524*%
G04:AMPARAMS|DCode=133|XSize=11.94mil|YSize=11.94mil|CornerRadius=4.49mil|HoleSize=0mil|Usage=FLASHONLY|Rotation=90.000|XOffset=0mil|YOffset=0mil|HoleType=Round|Shape=RoundedRectangle|*
%AMROUNDEDRECTD133*
21,1,0.01194,0.00295,0,0,90.0*
21,1,0.00295,0.01194,0,0,90.0*
1,1,0.00898,0.00148,0.00148*
1,1,0.00898,0.00148,-0.00148*
1,1,0.00898,-0.00148,-0.00148*
1,1,0.00898,-0.00148,0.00148*
%
%ADD133ROUNDEDRECTD133*%
G04:AMPARAMS|DCode=134|XSize=86.74mil|YSize=67.06mil|CornerRadius=11.38mil|HoleSize=0mil|Usage=FLASHONLY|Rotation=180.000|XOffset=0mil|YOffset=0mil|HoleType=Round|Shape=RoundedRectangle|*
%AMROUNDEDRECTD134*
21,1,0.08674,0.04429,0,0,180.0*
21,1,0.06398,0.06706,0,0,180.0*
1,1,0.02276,-0.03199,0.02215*
1,1,0.02276,0.03199,0.02215*
1,1,0.02276,0.03199,-0.02215*
1,1,0.02276,-0.03199,-0.02215*
%
%ADD134ROUNDEDRECTD134*%
G04:AMPARAMS|DCode=135|XSize=86.74mil|YSize=67.06mil|CornerRadius=11.38mil|HoleSize=0mil|Usage=FLASHONLY|Rotation=270.000|XOffset=0mil|YOffset=0mil|HoleType=Round|Shape=RoundedRectangle|*
%AMROUNDEDRECTD135*
21,1,0.08674,0.04429,0,0,270.0*
21,1,0.06398,0.06706,0,0,270.0*
1,1,0.02276,-0.02215,-0.03199*
1,1,0.02276,-0.02215,0.03199*
1,1,0.02276,0.02215,0.03199*
1,1,0.02276,0.02215,-0.03199*
%
%ADD135ROUNDEDRECTD135*%
%ADD136C,0.11824*%
G04:AMPARAMS|DCode=137|XSize=90.68mil|YSize=67.06mil|CornerRadius=18.76mil|HoleSize=0mil|Usage=FLASHONLY|Rotation=0.000|XOffset=0mil|YOffset=0mil|HoleType=Round|Shape=RoundedRectangle|*
%AMROUNDEDRECTD137*
21,1,0.09068,0.02953,0,0,0.0*
21,1,0.05315,0.06706,0,0,0.0*
1,1,0.03753,0.02657,-0.01476*
1,1,0.03753,-0.02657,-0.01476*
1,1,0.03753,-0.02657,0.01476*
1,1,0.03753,0.02657,0.01476*
%
%ADD137ROUNDEDRECTD137*%
G04:AMPARAMS|DCode=138|XSize=90.68mil|YSize=67.06mil|CornerRadius=18.76mil|HoleSize=0mil|Usage=FLASHONLY|Rotation=90.000|XOffset=0mil|YOffset=0mil|HoleType=Round|Shape=RoundedRectangle|*
%AMROUNDEDRECTD138*
21,1,0.09068,0.02953,0,0,90.0*
21,1,0.05315,0.06706,0,0,90.0*
1,1,0.03753,0.01476,0.02657*
1,1,0.03753,0.01476,-0.02657*
1,1,0.03753,-0.01476,-0.02657*
1,1,0.03753,-0.01476,0.02657*
%
%ADD138ROUNDEDRECTD138*%
%ADD139R,0.06706X0.06706*%
%ADD140C,0.03950*%
%ADD141O,0.05328X0.07887*%
%ADD142O,0.06509X0.08674*%
%ADD143C,0.04737*%
%ADD144C,0.03162*%
%ADD145C,0.02768*%
D127*
X170472Y235827D02*
D03*
X301279Y131398D02*
D03*
X293406D02*
D03*
X285531D02*
D03*
X277658D02*
D03*
X321240Y211811D02*
D03*
X316240Y201811D02*
D03*
X311240Y211811D02*
D03*
X306240Y201811D02*
D03*
X301240Y211811D02*
D03*
X296240Y201811D02*
D03*
X291240Y211811D02*
D03*
X286240Y201811D02*
D03*
X329035Y256890D02*
D03*
X319193D02*
D03*
X287402D02*
D03*
X276870D02*
D03*
D128*
X15748Y47244D02*
D03*
X330709Y169291D02*
D03*
X15748Y259842D02*
D03*
D129*
X139764Y201772D02*
D03*
X147638D02*
D03*
X84646D02*
D03*
X92520D02*
D03*
D130*
X47244Y116142D02*
D03*
Y96457D02*
D03*
X171260Y116142D02*
D03*
Y96457D02*
D03*
X12500Y81496D02*
D03*
Y97244D02*
D03*
Y89370D02*
D03*
X35827Y222835D02*
D03*
X16142D02*
D03*
D131*
X5748Y4921D02*
D03*
X15748D02*
D03*
X25748D02*
D03*
D132*
X309154Y131398D02*
D03*
D133*
X224410Y37402D02*
D03*
X204724Y17717D02*
D03*
Y7874D02*
D03*
X244094Y17717D02*
D03*
Y7874D02*
D03*
D134*
X224410Y17717D02*
D03*
D135*
X244094Y37402D02*
D03*
X204724D02*
D03*
X234252D02*
D03*
X214567D02*
D03*
D136*
X334449Y225984D02*
D03*
X273031D02*
D03*
X326240Y237992D02*
D03*
X281240D02*
D03*
D137*
X137795Y224410D02*
D03*
Y248031D02*
D03*
D138*
X119291Y236221D02*
D03*
D139*
X12500Y105118D02*
D03*
D140*
X169291Y258465D02*
D03*
X188976D02*
D03*
D141*
X163878Y269291D02*
D03*
X194390D02*
D03*
D142*
X164469Y254331D02*
D03*
X193799D02*
D03*
D143*
X100000Y40000D02*
D03*
X90000D02*
D03*
X110000D02*
D03*
X80000Y30000D02*
D03*
X90000D02*
D03*
X100000D02*
D03*
X110000D02*
D03*
X346457Y153543D02*
D03*
X334646D02*
D03*
X338583Y66929D02*
D03*
X314961Y62992D02*
D03*
X271654D02*
D03*
X259842Y47244D02*
D03*
X255906Y66929D02*
D03*
X271654Y82677D02*
D03*
X267717Y90551D02*
D03*
X229528Y134252D02*
D03*
X216535Y149606D02*
D03*
X200787Y145669D02*
D03*
X192913Y141732D02*
D03*
X199803Y125984D02*
D03*
X196850Y133858D02*
D03*
Y110236D02*
D03*
X145669Y59055D02*
D03*
X137795Y43307D02*
D03*
X118110Y47244D02*
D03*
X125984Y59055D02*
D03*
X98425D02*
D03*
X94488Y74803D02*
D03*
X133858Y78740D02*
D03*
X228346D02*
D03*
X106299Y153543D02*
D03*
X318898Y47244D02*
D03*
X307087Y66929D02*
D03*
X314961Y70866D02*
D03*
X307087Y82677D02*
D03*
X299213Y90551D02*
D03*
X291339Y94488D02*
D03*
X275590D02*
D03*
X283465Y70866D02*
D03*
X303150Y118110D02*
D03*
X307087Y141732D02*
D03*
X39370Y114173D02*
D03*
Y98425D02*
D03*
X19685Y118110D02*
D03*
X267717Y216535D02*
D03*
X259842D02*
D03*
X271654Y188976D02*
D03*
D144*
X231299Y198819D02*
D03*
X339764Y236221D02*
D03*
Y248819D02*
D03*
X278740Y168504D02*
D03*
X282677D02*
D03*
X93307Y32677D02*
D03*
X110236Y25984D02*
D03*
X199606Y62205D02*
D03*
X236221D02*
D03*
X221654D02*
D03*
X225590Y120473D02*
D03*
X88189Y103937D02*
D03*
X249999Y103543D02*
D03*
X338287Y153248D02*
D03*
X123031Y48228D02*
D03*
X338090Y60532D02*
D03*
X336417Y56004D02*
D03*
X252953Y46260D02*
D03*
X90551Y54134D02*
D03*
X199803Y58071D02*
D03*
X96457Y54134D02*
D03*
X268701Y58071D02*
D03*
X102362Y54134D02*
D03*
X195571Y75984D02*
D03*
X108268Y54134D02*
D03*
X211614Y114665D02*
D03*
X125000Y53150D02*
D03*
X58071Y84646D02*
D03*
X55118Y87598D02*
D03*
X74803Y134843D02*
D03*
X47244Y131890D02*
D03*
X64961Y110236D02*
D03*
X68898Y82677D02*
D03*
X64961Y91535D02*
D03*
X78740Y77756D02*
D03*
Y86614D02*
D03*
X153543Y184055D02*
D03*
X133858D02*
D03*
X98425D02*
D03*
X78740D02*
D03*
X229134Y74705D02*
D03*
X245866Y105905D02*
D03*
X225492Y84547D02*
D03*
X215453Y98819D02*
D03*
X196949Y116142D02*
D03*
X193799Y79429D02*
D03*
X193996Y136024D02*
D03*
X191339Y138681D02*
D03*
X218525Y135740D02*
D03*
X219193Y138681D02*
D03*
X211024Y133858D02*
D03*
X267618Y97146D02*
D03*
X200689Y129921D02*
D03*
X265354Y130118D02*
D03*
X264862Y102165D02*
D03*
X210630Y129429D02*
D03*
X257283Y131890D02*
D03*
X232185Y129921D02*
D03*
X342547Y124716D02*
D03*
X344488Y127461D02*
D03*
X317323Y55216D02*
D03*
X124705Y87598D02*
D03*
X176476Y177165D02*
D03*
X172638D02*
D03*
X178740Y81201D02*
D03*
X184941Y84547D02*
D03*
X322933Y153248D02*
D03*
X348425Y138878D02*
D03*
X348622Y121063D02*
D03*
X320177Y112205D02*
D03*
X312894Y121063D02*
D03*
X41339Y78740D02*
D03*
X57874Y51673D02*
D03*
X71949Y41831D02*
D03*
X68898D02*
D03*
X66043D02*
D03*
X81988Y32480D02*
D03*
X100394Y32283D02*
D03*
X143701Y33465D02*
D03*
X153543D02*
D03*
X167323Y52165D02*
D03*
X160433D02*
D03*
X153543Y52264D02*
D03*
X184646Y60827D02*
D03*
X192520Y28248D02*
D03*
X210728Y118799D02*
D03*
X233858Y122047D02*
D03*
X257382Y119291D02*
D03*
X245571Y125984D02*
D03*
X177854Y167520D02*
D03*
X180512Y153740D02*
D03*
X188878Y179724D02*
D03*
X181102Y234154D02*
D03*
X209350Y228346D02*
D03*
X225098Y188484D02*
D03*
X7196Y169305D02*
D03*
X16634Y168898D02*
D03*
X13386Y185925D02*
D03*
X18602Y135236D02*
D03*
X134843Y95473D02*
D03*
X199606Y151181D02*
D03*
X187008Y31496D02*
D03*
X240453Y98425D02*
D03*
X254331Y41240D02*
D03*
X215453Y155610D02*
D03*
X244094Y155217D02*
D03*
X232677Y161516D02*
D03*
X232283Y71555D02*
D03*
X248031Y70768D02*
D03*
X240158Y82677D02*
D03*
X217717Y82579D02*
D03*
X203740Y70669D02*
D03*
X207283Y79429D02*
D03*
X219783Y91929D02*
D03*
X200591Y102559D02*
D03*
X201772Y98032D02*
D03*
X220297Y114774D02*
D03*
X217520Y114665D02*
D03*
X174016Y249902D02*
D03*
X253642Y218012D02*
D03*
X250984Y254429D02*
D03*
X239665D02*
D03*
X222146D02*
D03*
X237205Y246949D02*
D03*
X233268Y184055D02*
D03*
X248031Y196850D02*
D03*
X195768Y50984D02*
D03*
X195886Y46562D02*
D03*
X209055Y49114D02*
D03*
X267717Y135630D02*
D03*
X257382Y125591D02*
D03*
X298721Y140650D02*
D03*
X94587Y64370D02*
D03*
X195472Y71063D02*
D03*
X208760Y32087D02*
D03*
X124606Y84449D02*
D03*
X102362Y59055D02*
D03*
X275590Y90551D02*
D03*
X38583Y23228D02*
D03*
X34449Y270669D02*
D03*
X70866Y215551D02*
D03*
Y263779D02*
D03*
X51181Y197835D02*
D03*
X56102D02*
D03*
X61024D02*
D03*
X53150Y193898D02*
D03*
X58071D02*
D03*
X79724Y271654D02*
D03*
Y266732D02*
D03*
Y261811D02*
D03*
Y256890D02*
D03*
X75787Y196850D02*
D03*
X31102Y198622D02*
D03*
X40859Y74418D02*
D03*
X28642Y74410D02*
D03*
X12795Y72736D02*
D03*
X54134Y176181D02*
D03*
X58071D02*
D03*
X62008D02*
D03*
X65945D02*
D03*
X61024Y117126D02*
D03*
X191339Y81201D02*
D03*
X57087Y117126D02*
D03*
X53150D02*
D03*
X119980Y214764D02*
D03*
X160236Y240158D02*
D03*
X172736Y148917D02*
D03*
X195571Y129134D02*
D03*
X285531Y122638D02*
D03*
X227974Y106113D02*
D03*
X231299Y105807D02*
D03*
X34646Y252756D02*
D03*
X134350Y99410D02*
D03*
X93602Y102756D02*
D03*
X249410Y25591D02*
D03*
X245472Y28740D02*
D03*
X192126Y237402D02*
D03*
X200394Y242913D02*
D03*
X211417Y237795D02*
D03*
X224410D02*
D03*
X205512Y245276D02*
D03*
X124409Y205512D02*
D03*
X115354Y191339D02*
D03*
X104331Y197638D02*
D03*
X78347Y210236D02*
D03*
D145*
X109843Y113189D02*
D03*
X118504Y91535D02*
D03*
X114173D02*
D03*
X109843D02*
D03*
X118504Y95866D02*
D03*
X114173D02*
D03*
X109843D02*
D03*
X118504Y100197D02*
D03*
X114173D02*
D03*
X109843D02*
D03*
X118504Y104528D02*
D03*
X114173D02*
D03*
X109843D02*
D03*
X118504Y108858D02*
D03*
X114173D02*
D03*
X109843D02*
D03*
X118504Y113189D02*
D03*
X114173D02*
D03*
X296063Y167913D02*
D03*
X300394D02*
D03*
X296063Y163583D02*
D03*
X300394D02*
D03*
M02*
