G04 Layer_Color=128*
%FSLAX25Y25*%
%MOIN*%
G70*
G01*
G75*
%ADD18C,0.03937*%
%ADD84R,0.00787X0.00787*%
D18*
X100000Y40000D02*
D03*
X90000D02*
D03*
X110000D02*
D03*
X80000Y30000D02*
D03*
X90000D02*
D03*
X100000D02*
D03*
X110000D02*
D03*
X346457Y153543D02*
D03*
X334646D02*
D03*
X338583Y66929D02*
D03*
X314961Y62992D02*
D03*
X271654D02*
D03*
X259842Y47244D02*
D03*
X255906Y66929D02*
D03*
X271654Y82677D02*
D03*
X267717Y90551D02*
D03*
X229528Y134252D02*
D03*
X216535Y149606D02*
D03*
X200787Y145669D02*
D03*
X192913Y141732D02*
D03*
X199803Y125984D02*
D03*
X196850Y133858D02*
D03*
Y110236D02*
D03*
X145669Y59055D02*
D03*
X137795Y43307D02*
D03*
X118110Y47244D02*
D03*
X125984Y59055D02*
D03*
X98425D02*
D03*
X94488Y74803D02*
D03*
X133858Y78740D02*
D03*
X228346D02*
D03*
X106299Y153543D02*
D03*
X318898Y47244D02*
D03*
X307087Y66929D02*
D03*
X314961Y70866D02*
D03*
X307087Y82677D02*
D03*
X299213Y90551D02*
D03*
X291339Y94488D02*
D03*
X275590D02*
D03*
X283465Y70866D02*
D03*
X303150Y118110D02*
D03*
X307087Y141732D02*
D03*
X39370Y114173D02*
D03*
Y98425D02*
D03*
X19685Y118110D02*
D03*
X267717Y216535D02*
D03*
X259842D02*
D03*
X271654Y188976D02*
D03*
D84*
X220276Y117028D02*
D03*
Y116240D02*
D03*
M02*
