G04 Layer_Color=8388736*
%FSLAX25Y25*%
%MOIN*%
G70*
G01*
G75*
G04:AMPARAMS|DCode=85|XSize=45.4mil|YSize=39.5mil|CornerRadius=7.94mil|HoleSize=0mil|Usage=FLASHONLY|Rotation=0.000|XOffset=0mil|YOffset=0mil|HoleType=Round|Shape=RoundedRectangle|*
%AMROUNDEDRECTD85*
21,1,0.04540,0.02362,0,0,0.0*
21,1,0.02953,0.03950,0,0,0.0*
1,1,0.01587,0.01476,-0.01181*
1,1,0.01587,-0.01476,-0.01181*
1,1,0.01587,-0.01476,0.01181*
1,1,0.01587,0.01476,0.01181*
%
%ADD85ROUNDEDRECTD85*%
G04:AMPARAMS|DCode=86|XSize=47.37mil|YSize=43.43mil|CornerRadius=8.43mil|HoleSize=0mil|Usage=FLASHONLY|Rotation=90.000|XOffset=0mil|YOffset=0mil|HoleType=Round|Shape=RoundedRectangle|*
%AMROUNDEDRECTD86*
21,1,0.04737,0.02657,0,0,90.0*
21,1,0.03051,0.04343,0,0,90.0*
1,1,0.01686,0.01329,0.01526*
1,1,0.01686,0.01329,-0.01526*
1,1,0.01686,-0.01329,-0.01526*
1,1,0.01686,-0.01329,0.01526*
%
%ADD86ROUNDEDRECTD86*%
G04:AMPARAMS|DCode=87|XSize=45.4mil|YSize=41.47mil|CornerRadius=8.18mil|HoleSize=0mil|Usage=FLASHONLY|Rotation=0.000|XOffset=0mil|YOffset=0mil|HoleType=Round|Shape=RoundedRectangle|*
%AMROUNDEDRECTD87*
21,1,0.04540,0.02510,0,0,0.0*
21,1,0.02904,0.04147,0,0,0.0*
1,1,0.01637,0.01452,-0.01255*
1,1,0.01637,-0.01452,-0.01255*
1,1,0.01637,-0.01452,0.01255*
1,1,0.01637,0.01452,0.01255*
%
%ADD87ROUNDEDRECTD87*%
G04:AMPARAMS|DCode=88|XSize=45.4mil|YSize=39.5mil|CornerRadius=7.94mil|HoleSize=0mil|Usage=FLASHONLY|Rotation=270.000|XOffset=0mil|YOffset=0mil|HoleType=Round|Shape=RoundedRectangle|*
%AMROUNDEDRECTD88*
21,1,0.04540,0.02362,0,0,270.0*
21,1,0.02953,0.03950,0,0,270.0*
1,1,0.01587,-0.01181,-0.01476*
1,1,0.01587,-0.01181,0.01476*
1,1,0.01587,0.01181,0.01476*
1,1,0.01587,0.01181,-0.01476*
%
%ADD88ROUNDEDRECTD88*%
G04:AMPARAMS|DCode=89|XSize=45.4mil|YSize=41.47mil|CornerRadius=8.18mil|HoleSize=0mil|Usage=FLASHONLY|Rotation=90.000|XOffset=0mil|YOffset=0mil|HoleType=Round|Shape=RoundedRectangle|*
%AMROUNDEDRECTD89*
21,1,0.04540,0.02510,0,0,90.0*
21,1,0.02904,0.04147,0,0,90.0*
1,1,0.01637,0.01255,0.01452*
1,1,0.01637,0.01255,-0.01452*
1,1,0.01637,-0.01255,-0.01452*
1,1,0.01637,-0.01255,0.01452*
%
%ADD89ROUNDEDRECTD89*%
G04:AMPARAMS|DCode=90|XSize=47.37mil|YSize=43.43mil|CornerRadius=8.43mil|HoleSize=0mil|Usage=FLASHONLY|Rotation=180.000|XOffset=0mil|YOffset=0mil|HoleType=Round|Shape=RoundedRectangle|*
%AMROUNDEDRECTD90*
21,1,0.04737,0.02657,0,0,180.0*
21,1,0.03051,0.04343,0,0,180.0*
1,1,0.01686,-0.01526,0.01329*
1,1,0.01686,0.01526,0.01329*
1,1,0.01686,0.01526,-0.01329*
1,1,0.01686,-0.01526,-0.01329*
%
%ADD90ROUNDEDRECTD90*%
%ADD91R,0.04343X0.04737*%
%ADD92R,0.04343X0.03162*%
%ADD93C,0.07874*%
G04:AMPARAMS|DCode=94|XSize=70.99mil|YSize=232.41mil|CornerRadius=11.87mil|HoleSize=0mil|Usage=FLASHONLY|Rotation=90.000|XOffset=0mil|YOffset=0mil|HoleType=Round|Shape=RoundedRectangle|*
%AMROUNDEDRECTD94*
21,1,0.07099,0.20866,0,0,90.0*
21,1,0.04724,0.23241,0,0,90.0*
1,1,0.02375,0.10433,0.02362*
1,1,0.02375,0.10433,-0.02362*
1,1,0.02375,-0.10433,-0.02362*
1,1,0.02375,-0.10433,0.02362*
%
%ADD94ROUNDEDRECTD94*%
G04:AMPARAMS|DCode=95|XSize=78.87mil|YSize=63.12mil|CornerRadius=10.89mil|HoleSize=0mil|Usage=FLASHONLY|Rotation=0.000|XOffset=0mil|YOffset=0mil|HoleType=Round|Shape=RoundedRectangle|*
%AMROUNDEDRECTD95*
21,1,0.07887,0.04134,0,0,0.0*
21,1,0.05709,0.06312,0,0,0.0*
1,1,0.02178,0.02854,-0.02067*
1,1,0.02178,-0.02854,-0.02067*
1,1,0.02178,-0.02854,0.02067*
1,1,0.02178,0.02854,0.02067*
%
%ADD95ROUNDEDRECTD95*%
%ADD96R,0.22453X0.08674*%
G04:AMPARAMS|DCode=97|XSize=57.21mil|YSize=47.37mil|CornerRadius=8.92mil|HoleSize=0mil|Usage=FLASHONLY|Rotation=270.000|XOffset=0mil|YOffset=0mil|HoleType=Round|Shape=RoundedRectangle|*
%AMROUNDEDRECTD97*
21,1,0.05721,0.02953,0,0,270.0*
21,1,0.03937,0.04737,0,0,270.0*
1,1,0.01784,-0.01476,-0.01968*
1,1,0.01784,-0.01476,0.01968*
1,1,0.01784,0.01476,0.01968*
1,1,0.01784,0.01476,-0.01968*
%
%ADD97ROUNDEDRECTD97*%
%ADD98R,0.04540X0.02965*%
%ADD99R,0.03162X0.04343*%
G04:AMPARAMS|DCode=100|XSize=78.87mil|YSize=63.12mil|CornerRadius=10.89mil|HoleSize=0mil|Usage=FLASHONLY|Rotation=90.000|XOffset=0mil|YOffset=0mil|HoleType=Round|Shape=RoundedRectangle|*
%AMROUNDEDRECTD100*
21,1,0.07887,0.04134,0,0,90.0*
21,1,0.05709,0.06312,0,0,90.0*
1,1,0.02178,0.02067,0.02854*
1,1,0.02178,0.02067,-0.02854*
1,1,0.02178,-0.02067,-0.02854*
1,1,0.02178,-0.02067,0.02854*
%
%ADD100ROUNDEDRECTD100*%
%ADD101R,0.10249X0.04934*%
%ADD102R,0.28359X0.28359*%
G04:AMPARAMS|DCode=103|XSize=74.93mil|YSize=51.31mil|CornerRadius=9.41mil|HoleSize=0mil|Usage=FLASHONLY|Rotation=90.000|XOffset=0mil|YOffset=0mil|HoleType=Round|Shape=RoundedRectangle|*
%AMROUNDEDRECTD103*
21,1,0.07493,0.03248,0,0,90.0*
21,1,0.05610,0.05131,0,0,90.0*
1,1,0.01883,0.01624,0.02805*
1,1,0.01883,0.01624,-0.02805*
1,1,0.01883,-0.01624,-0.02805*
1,1,0.01883,-0.01624,0.02805*
%
%ADD103ROUNDEDRECTD103*%
G04:AMPARAMS|DCode=104|XSize=43.43mil|YSize=47.37mil|CornerRadius=8.43mil|HoleSize=0mil|Usage=FLASHONLY|Rotation=180.000|XOffset=0mil|YOffset=0mil|HoleType=Round|Shape=RoundedRectangle|*
%AMROUNDEDRECTD104*
21,1,0.04343,0.03051,0,0,180.0*
21,1,0.02657,0.04737,0,0,180.0*
1,1,0.01686,-0.01329,0.01526*
1,1,0.01686,0.01329,0.01526*
1,1,0.01686,0.01329,-0.01526*
1,1,0.01686,-0.01329,-0.01526*
%
%ADD104ROUNDEDRECTD104*%
%ADD105R,0.14973X0.25997*%
%ADD106O,0.07099X0.01981*%
%ADD107O,0.02454X0.05721*%
%ADD108R,0.06706X0.04343*%
%ADD109R,0.04343X0.06706*%
%ADD110R,0.24422X0.24422*%
%ADD111O,0.01981X0.06509*%
%ADD112O,0.06509X0.01981*%
G04:AMPARAMS|DCode=113|XSize=19.81mil|YSize=55.24mil|CornerRadius=5.48mil|HoleSize=0mil|Usage=FLASHONLY|Rotation=0.000|XOffset=0mil|YOffset=0mil|HoleType=Round|Shape=RoundedRectangle|*
%AMROUNDEDRECTD113*
21,1,0.01981,0.04429,0,0,0.0*
21,1,0.00886,0.05524,0,0,0.0*
1,1,0.01095,0.00443,-0.02215*
1,1,0.01095,-0.00443,-0.02215*
1,1,0.01095,-0.00443,0.02215*
1,1,0.01095,0.00443,0.02215*
%
%ADD113ROUNDEDRECTD113*%
G04:AMPARAMS|DCode=114|XSize=102.49mil|YSize=102.49mil|CornerRadius=15.81mil|HoleSize=0mil|Usage=FLASHONLY|Rotation=0.000|XOffset=0mil|YOffset=0mil|HoleType=Round|Shape=RoundedRectangle|*
%AMROUNDEDRECTD114*
21,1,0.10249,0.07087,0,0,0.0*
21,1,0.07087,0.10249,0,0,0.0*
1,1,0.03162,0.03543,-0.03543*
1,1,0.03162,-0.03543,-0.03543*
1,1,0.03162,-0.03543,0.03543*
1,1,0.03162,0.03543,0.03543*
%
%ADD114ROUNDEDRECTD114*%
%ADD115O,0.04343X0.01784*%
%ADD116O,0.01784X0.04343*%
%ADD117R,0.10642X0.10642*%
G04:AMPARAMS|DCode=118|XSize=86.74mil|YSize=55.24mil|CornerRadius=9.9mil|HoleSize=0mil|Usage=FLASHONLY|Rotation=270.000|XOffset=0mil|YOffset=0mil|HoleType=Round|Shape=RoundedRectangle|*
%AMROUNDEDRECTD118*
21,1,0.08674,0.03543,0,0,270.0*
21,1,0.06693,0.05524,0,0,270.0*
1,1,0.01981,-0.01772,-0.03347*
1,1,0.01981,-0.01772,0.03347*
1,1,0.01981,0.01772,0.03347*
1,1,0.01981,0.01772,-0.03347*
%
%ADD118ROUNDEDRECTD118*%
%ADD119O,0.02572X0.06312*%
%ADD120R,0.08674X0.24422*%
%ADD121R,0.04540X0.03162*%
%ADD122R,0.04343X0.09068*%
%ADD123R,0.13398X0.09068*%
%ADD124O,0.06312X0.02375*%
%ADD125R,0.03162X0.04540*%
%ADD126R,0.02572X0.05918*%
%ADD127C,0.05524*%
%ADD128C,0.20485*%
%ADD129O,0.06706X0.10642*%
%ADD130C,0.06706*%
%ADD131O,0.05524X0.06706*%
%ADD132R,0.05524X0.05524*%
G04:AMPARAMS|DCode=133|XSize=11.94mil|YSize=11.94mil|CornerRadius=4.49mil|HoleSize=0mil|Usage=FLASHONLY|Rotation=90.000|XOffset=0mil|YOffset=0mil|HoleType=Round|Shape=RoundedRectangle|*
%AMROUNDEDRECTD133*
21,1,0.01194,0.00295,0,0,90.0*
21,1,0.00295,0.01194,0,0,90.0*
1,1,0.00898,0.00148,0.00148*
1,1,0.00898,0.00148,-0.00148*
1,1,0.00898,-0.00148,-0.00148*
1,1,0.00898,-0.00148,0.00148*
%
%ADD133ROUNDEDRECTD133*%
G04:AMPARAMS|DCode=134|XSize=86.74mil|YSize=67.06mil|CornerRadius=11.38mil|HoleSize=0mil|Usage=FLASHONLY|Rotation=180.000|XOffset=0mil|YOffset=0mil|HoleType=Round|Shape=RoundedRectangle|*
%AMROUNDEDRECTD134*
21,1,0.08674,0.04429,0,0,180.0*
21,1,0.06398,0.06706,0,0,180.0*
1,1,0.02276,-0.03199,0.02215*
1,1,0.02276,0.03199,0.02215*
1,1,0.02276,0.03199,-0.02215*
1,1,0.02276,-0.03199,-0.02215*
%
%ADD134ROUNDEDRECTD134*%
G04:AMPARAMS|DCode=135|XSize=86.74mil|YSize=67.06mil|CornerRadius=11.38mil|HoleSize=0mil|Usage=FLASHONLY|Rotation=270.000|XOffset=0mil|YOffset=0mil|HoleType=Round|Shape=RoundedRectangle|*
%AMROUNDEDRECTD135*
21,1,0.08674,0.04429,0,0,270.0*
21,1,0.06398,0.06706,0,0,270.0*
1,1,0.02276,-0.02215,-0.03199*
1,1,0.02276,-0.02215,0.03199*
1,1,0.02276,0.02215,0.03199*
1,1,0.02276,0.02215,-0.03199*
%
%ADD135ROUNDEDRECTD135*%
%ADD136C,0.11824*%
G04:AMPARAMS|DCode=137|XSize=90.68mil|YSize=67.06mil|CornerRadius=18.76mil|HoleSize=0mil|Usage=FLASHONLY|Rotation=0.000|XOffset=0mil|YOffset=0mil|HoleType=Round|Shape=RoundedRectangle|*
%AMROUNDEDRECTD137*
21,1,0.09068,0.02953,0,0,0.0*
21,1,0.05315,0.06706,0,0,0.0*
1,1,0.03753,0.02657,-0.01476*
1,1,0.03753,-0.02657,-0.01476*
1,1,0.03753,-0.02657,0.01476*
1,1,0.03753,0.02657,0.01476*
%
%ADD137ROUNDEDRECTD137*%
G04:AMPARAMS|DCode=138|XSize=90.68mil|YSize=67.06mil|CornerRadius=18.76mil|HoleSize=0mil|Usage=FLASHONLY|Rotation=90.000|XOffset=0mil|YOffset=0mil|HoleType=Round|Shape=RoundedRectangle|*
%AMROUNDEDRECTD138*
21,1,0.09068,0.02953,0,0,90.0*
21,1,0.05315,0.06706,0,0,90.0*
1,1,0.03753,0.01476,0.02657*
1,1,0.03753,0.01476,-0.02657*
1,1,0.03753,-0.01476,-0.02657*
1,1,0.03753,-0.01476,0.02657*
%
%ADD138ROUNDEDRECTD138*%
%ADD139R,0.06706X0.06706*%
%ADD140C,0.03950*%
%ADD141O,0.05328X0.07887*%
%ADD142O,0.06509X0.08674*%
G36*
X347342Y209252D02*
X342913D01*
Y221752D01*
X347342D01*
Y209252D01*
D02*
G37*
G36*
X353445Y175000D02*
X348917D01*
Y221850D01*
X353445D01*
Y175000D01*
D02*
G37*
G36*
X163386Y228346D02*
X157480D01*
Y236221D01*
X163386D01*
Y228346D01*
D02*
G37*
G36*
X353445Y223721D02*
X348917D01*
Y260138D01*
X353445D01*
Y223721D01*
D02*
G37*
D85*
X231299Y194095D02*
D03*
Y187795D02*
D03*
X246555Y96063D02*
D03*
Y89764D02*
D03*
X343701Y190059D02*
D03*
Y183760D02*
D03*
X347244Y103150D02*
D03*
Y109449D02*
D03*
X71161Y49016D02*
D03*
Y55315D02*
D03*
X75886Y74114D02*
D03*
Y67815D02*
D03*
X151673Y93504D02*
D03*
Y87205D02*
D03*
X164862Y240256D02*
D03*
Y246555D02*
D03*
D86*
X282087Y158268D02*
D03*
X276772D02*
D03*
X254134Y131890D02*
D03*
X248819D02*
D03*
X254134Y119291D02*
D03*
X248819D02*
D03*
X254134Y125591D02*
D03*
X248819D02*
D03*
X251673Y141437D02*
D03*
X246358D02*
D03*
X232677Y157480D02*
D03*
X227362D02*
D03*
X243996Y151083D02*
D03*
X238681D02*
D03*
X215453Y151279D02*
D03*
X220768D02*
D03*
X204035Y151181D02*
D03*
X209350D02*
D03*
X219783Y95276D02*
D03*
X225098D02*
D03*
X245768Y102362D02*
D03*
X240453D02*
D03*
X19980Y15256D02*
D03*
X25295D02*
D03*
X186417Y36614D02*
D03*
X181102D02*
D03*
X203937Y102559D02*
D03*
X209252D02*
D03*
X215453Y102461D02*
D03*
X220768D02*
D03*
X231988D02*
D03*
X226673D02*
D03*
X183169Y170866D02*
D03*
X188484D02*
D03*
X225098Y185039D02*
D03*
X219783D02*
D03*
X225098Y191929D02*
D03*
X219783D02*
D03*
X251279Y205906D02*
D03*
X256594D02*
D03*
X245768Y250787D02*
D03*
X251083D02*
D03*
X239665D02*
D03*
X234350D02*
D03*
X222146D02*
D03*
X227461D02*
D03*
X283268Y172736D02*
D03*
X277953D02*
D03*
X311713Y178248D02*
D03*
X317028D02*
D03*
X326575Y190059D02*
D03*
X331890D02*
D03*
X345177Y121063D02*
D03*
X339862D02*
D03*
X72146Y82677D02*
D03*
X77461D02*
D03*
X82972Y86614D02*
D03*
X88287D02*
D03*
X75098Y92520D02*
D03*
X80413D02*
D03*
X70177Y104331D02*
D03*
X75492D02*
D03*
X70177Y110236D02*
D03*
X75492D02*
D03*
X146358Y185827D02*
D03*
X141043D02*
D03*
X91240D02*
D03*
X85925D02*
D03*
X71555Y196850D02*
D03*
X66240D02*
D03*
X183563Y149016D02*
D03*
X178248D02*
D03*
X215059Y237795D02*
D03*
X220374D02*
D03*
D87*
X313386Y154528D02*
D03*
Y159646D02*
D03*
X343701Y253740D02*
D03*
Y248622D02*
D03*
Y241142D02*
D03*
Y236024D02*
D03*
X249016Y113681D02*
D03*
Y108563D02*
D03*
X265846Y120177D02*
D03*
Y125295D02*
D03*
X197736Y135827D02*
D03*
Y140945D02*
D03*
X248031Y62402D02*
D03*
Y67520D02*
D03*
X240158Y67520D02*
D03*
Y62402D02*
D03*
X232283Y62402D02*
D03*
Y67520D02*
D03*
X225590Y67520D02*
D03*
Y62402D02*
D03*
X217717Y67520D02*
D03*
Y62402D02*
D03*
X210630Y67520D02*
D03*
Y62402D02*
D03*
X203740Y62402D02*
D03*
Y67520D02*
D03*
X195472Y62402D02*
D03*
Y67520D02*
D03*
X153543Y48819D02*
D03*
Y43701D02*
D03*
X160433Y48819D02*
D03*
Y43701D02*
D03*
X167323Y48819D02*
D03*
Y43701D02*
D03*
X174213Y48819D02*
D03*
Y43701D02*
D03*
X156496Y60630D02*
D03*
Y55512D02*
D03*
X108268Y50787D02*
D03*
Y45669D02*
D03*
X102362Y50787D02*
D03*
Y45669D02*
D03*
X96457Y50787D02*
D03*
Y45669D02*
D03*
X90551Y50787D02*
D03*
Y45669D02*
D03*
X244094Y201181D02*
D03*
Y206299D02*
D03*
X237205Y201181D02*
D03*
Y206299D02*
D03*
X261811Y236417D02*
D03*
Y231299D02*
D03*
Y249016D02*
D03*
Y243898D02*
D03*
X277067Y151969D02*
D03*
Y146850D02*
D03*
X68898Y92913D02*
D03*
Y98032D02*
D03*
X20079Y181890D02*
D03*
Y176772D02*
D03*
X6299Y176772D02*
D03*
Y181890D02*
D03*
X3937Y164173D02*
D03*
Y169291D02*
D03*
X46260Y256496D02*
D03*
Y251378D02*
D03*
X61811Y233661D02*
D03*
Y238779D02*
D03*
X38583Y15945D02*
D03*
Y10827D02*
D03*
X5906Y63386D02*
D03*
Y68504D02*
D03*
X12795Y68504D02*
D03*
Y63386D02*
D03*
X341142Y103051D02*
D03*
Y97933D02*
D03*
X108268Y202559D02*
D03*
Y197441D02*
D03*
X214567Y250197D02*
D03*
Y245079D02*
D03*
D88*
X254724Y149606D02*
D03*
X261024D02*
D03*
X152657Y67618D02*
D03*
X158957D02*
D03*
X251279Y199311D02*
D03*
X257579D02*
D03*
X306890Y147343D02*
D03*
X313189D02*
D03*
D89*
X227362Y151181D02*
D03*
X232480D02*
D03*
X188681Y71752D02*
D03*
X183563D02*
D03*
X184646Y57087D02*
D03*
X179528D02*
D03*
X287402Y189961D02*
D03*
X292520D02*
D03*
X278051Y179626D02*
D03*
X283169D02*
D03*
X281102Y189961D02*
D03*
X275984D02*
D03*
X309646D02*
D03*
X304528D02*
D03*
X314961D02*
D03*
X320079D02*
D03*
X316339Y121063D02*
D03*
X321457D02*
D03*
X328150D02*
D03*
X333268D02*
D03*
X344291Y91634D02*
D03*
X339173D02*
D03*
X343701Y66240D02*
D03*
X338583D02*
D03*
X343701Y72441D02*
D03*
X338583D02*
D03*
X37992Y63976D02*
D03*
X32874D02*
D03*
X37992Y70866D02*
D03*
X32874D02*
D03*
X94685Y68209D02*
D03*
X99803D02*
D03*
X83071Y79724D02*
D03*
X88189D02*
D03*
X80315Y98425D02*
D03*
X75197D02*
D03*
X34449Y256693D02*
D03*
X39567D02*
D03*
X49803Y78740D02*
D03*
X44685D02*
D03*
X189075Y142618D02*
D03*
X183957D02*
D03*
X189961Y149016D02*
D03*
X195079D02*
D03*
X115157Y209842D02*
D03*
X110039D02*
D03*
X206102Y257874D02*
D03*
X200984D02*
D03*
D90*
X198031Y119783D02*
D03*
Y125098D02*
D03*
X210630Y79429D02*
D03*
Y74114D02*
D03*
X217717Y79429D02*
D03*
Y74114D02*
D03*
X225590Y79429D02*
D03*
Y74114D02*
D03*
X240158Y79429D02*
D03*
Y74114D02*
D03*
X192520Y31594D02*
D03*
Y36909D02*
D03*
X147638Y55413D02*
D03*
Y60728D02*
D03*
X77756Y54823D02*
D03*
Y49508D02*
D03*
X83661D02*
D03*
Y54823D02*
D03*
X174016Y158760D02*
D03*
Y164075D02*
D03*
X226378Y205413D02*
D03*
Y200098D02*
D03*
X219488Y205413D02*
D03*
Y200098D02*
D03*
X270768Y174606D02*
D03*
Y179921D02*
D03*
X298524Y189862D02*
D03*
Y184547D02*
D03*
X297244Y152067D02*
D03*
Y146752D02*
D03*
X289764Y152067D02*
D03*
Y146752D02*
D03*
X283268D02*
D03*
Y152067D02*
D03*
X348425Y135531D02*
D03*
Y130217D02*
D03*
X343701Y79035D02*
D03*
Y84350D02*
D03*
X347441Y45965D02*
D03*
Y40650D02*
D03*
X340551Y45965D02*
D03*
Y40650D02*
D03*
X89567Y73524D02*
D03*
Y68209D02*
D03*
X82677Y73524D02*
D03*
Y68209D02*
D03*
X87106Y97933D02*
D03*
Y92618D02*
D03*
X81693Y104626D02*
D03*
Y109941D02*
D03*
X138976Y87500D02*
D03*
Y92815D02*
D03*
X145669Y87500D02*
D03*
Y92815D02*
D03*
Y103839D02*
D03*
Y98524D02*
D03*
X138976D02*
D03*
Y103839D02*
D03*
X13386Y176673D02*
D03*
Y181988D02*
D03*
X19685Y63287D02*
D03*
Y68602D02*
D03*
X343701Y59449D02*
D03*
Y54134D02*
D03*
X192028Y246555D02*
D03*
Y241240D02*
D03*
D91*
X231201Y94980D02*
D03*
X201772Y94685D02*
D03*
X175984Y246457D02*
D03*
D92*
X231201Y88287D02*
D03*
X240256D02*
D03*
Y95768D02*
D03*
X201772Y87992D02*
D03*
X210827D02*
D03*
Y95473D02*
D03*
X246654Y188976D02*
D03*
X237598Y185236D02*
D03*
Y192717D02*
D03*
X261417Y188976D02*
D03*
X252362Y185236D02*
D03*
Y192717D02*
D03*
X46850Y266732D02*
D03*
X37795Y262992D02*
D03*
Y270472D02*
D03*
X61614Y266732D02*
D03*
X52559Y262992D02*
D03*
Y270472D02*
D03*
Y250984D02*
D03*
X61614Y254724D02*
D03*
Y247244D02*
D03*
X175984Y239764D02*
D03*
X185039D02*
D03*
Y247244D02*
D03*
X124213Y198819D02*
D03*
X115157Y195079D02*
D03*
Y202559D02*
D03*
D93*
X200787Y78740D02*
D03*
X346457Y263779D02*
D03*
X200787Y271654D02*
D03*
X7874Y27559D02*
D03*
D94*
X74803Y140354D02*
D03*
Y158858D02*
D03*
X129921Y140354D02*
D03*
Y158858D02*
D03*
X157480Y140354D02*
D03*
Y158858D02*
D03*
X59055Y169882D02*
D03*
Y188386D02*
D03*
X102362Y140354D02*
D03*
Y158858D02*
D03*
D95*
X78740Y178642D02*
D03*
Y167815D02*
D03*
X98425Y178642D02*
D03*
Y167815D02*
D03*
X133858Y178642D02*
D03*
Y167815D02*
D03*
X153543Y178642D02*
D03*
Y167815D02*
D03*
X29528Y159350D02*
D03*
Y170177D02*
D03*
X39370Y159350D02*
D03*
Y170177D02*
D03*
X88976Y121457D02*
D03*
Y110630D02*
D03*
X138386Y120079D02*
D03*
Y109252D02*
D03*
X75197Y116240D02*
D03*
Y127067D02*
D03*
X147146Y113779D02*
D03*
Y124606D02*
D03*
D96*
X217520Y266535D02*
D03*
X254921D02*
D03*
X205020Y170866D02*
D03*
X242421D02*
D03*
D97*
X42815Y131890D02*
D03*
X35925D02*
D03*
X42815Y140748D02*
D03*
X35925D02*
D03*
X42815Y149606D02*
D03*
X35925D02*
D03*
X10728Y153347D02*
D03*
X17618D02*
D03*
X34154Y178543D02*
D03*
X27264D02*
D03*
D98*
X10827Y161417D02*
D03*
Y165157D02*
D03*
Y168898D02*
D03*
X21457D02*
D03*
Y165157D02*
D03*
Y161417D02*
D03*
X192323Y43504D02*
D03*
Y47244D02*
D03*
Y50984D02*
D03*
X181693D02*
D03*
Y47244D02*
D03*
Y43504D02*
D03*
D99*
X67126Y202559D02*
D03*
X63386Y211614D02*
D03*
X70866D02*
D03*
X261221Y157087D02*
D03*
X257480Y166142D02*
D03*
X264961D02*
D03*
D100*
X31201Y192126D02*
D03*
X42028D02*
D03*
X104823Y131890D02*
D03*
X93996D02*
D03*
X122539D02*
D03*
X133366D02*
D03*
X137402Y214665D02*
D03*
X126575D02*
D03*
D101*
X69882Y268701D02*
D03*
Y250590D02*
D03*
Y221063D02*
D03*
Y239173D02*
D03*
D102*
X97638Y259646D02*
D03*
Y230118D02*
D03*
D103*
X23622Y192126D02*
D03*
X12598D02*
D03*
D104*
X39764Y3937D02*
D03*
X33465D02*
D03*
D105*
X114173Y102362D02*
D03*
D106*
X129528Y79724D02*
D03*
Y81693D02*
D03*
Y83661D02*
D03*
Y85630D02*
D03*
Y87598D02*
D03*
Y89567D02*
D03*
Y91535D02*
D03*
Y93504D02*
D03*
Y95473D02*
D03*
Y97441D02*
D03*
Y99410D02*
D03*
Y101378D02*
D03*
Y103347D02*
D03*
Y105315D02*
D03*
Y107283D02*
D03*
Y109252D02*
D03*
Y111221D02*
D03*
Y113189D02*
D03*
Y115157D02*
D03*
Y117126D02*
D03*
Y119095D02*
D03*
Y121063D02*
D03*
Y123031D02*
D03*
Y125000D02*
D03*
X98819Y79724D02*
D03*
Y81693D02*
D03*
Y83661D02*
D03*
Y85630D02*
D03*
Y87598D02*
D03*
Y89567D02*
D03*
Y91535D02*
D03*
Y93504D02*
D03*
Y95473D02*
D03*
Y97441D02*
D03*
Y99410D02*
D03*
Y101378D02*
D03*
Y103347D02*
D03*
Y105315D02*
D03*
Y107283D02*
D03*
Y109252D02*
D03*
Y111221D02*
D03*
Y113189D02*
D03*
Y115157D02*
D03*
Y117126D02*
D03*
Y119095D02*
D03*
Y121063D02*
D03*
Y123031D02*
D03*
Y125000D02*
D03*
D107*
X230610Y214075D02*
D03*
X233169D02*
D03*
X235728D02*
D03*
X238287D02*
D03*
X240846D02*
D03*
X243406D02*
D03*
X245965D02*
D03*
X248524D02*
D03*
X251083D02*
D03*
X253642D02*
D03*
X230610Y242618D02*
D03*
X233169D02*
D03*
X235728D02*
D03*
X238287D02*
D03*
X240846D02*
D03*
X243406D02*
D03*
X245965D02*
D03*
X248524D02*
D03*
X251083D02*
D03*
X253642D02*
D03*
D108*
X329724Y41260D02*
D03*
Y46260D02*
D03*
Y51260D02*
D03*
Y56260D02*
D03*
Y61260D02*
D03*
Y66260D02*
D03*
Y71260D02*
D03*
Y76260D02*
D03*
Y81260D02*
D03*
Y86260D02*
D03*
Y91260D02*
D03*
Y96260D02*
D03*
Y101260D02*
D03*
Y106260D02*
D03*
X258858D02*
D03*
Y101260D02*
D03*
Y96260D02*
D03*
Y91260D02*
D03*
Y86260D02*
D03*
Y81260D02*
D03*
Y76260D02*
D03*
Y71260D02*
D03*
Y66260D02*
D03*
Y61260D02*
D03*
Y56260D02*
D03*
Y51260D02*
D03*
Y46260D02*
D03*
Y41260D02*
D03*
D109*
X316791Y112126D02*
D03*
X311791D02*
D03*
X306791D02*
D03*
X301791D02*
D03*
X296791D02*
D03*
X291791D02*
D03*
X286791D02*
D03*
X281791D02*
D03*
X276791D02*
D03*
X271791D02*
D03*
D110*
X294291Y71575D02*
D03*
D111*
X233268Y110335D02*
D03*
X231299D02*
D03*
X229331D02*
D03*
X227362D02*
D03*
X225394D02*
D03*
X223425D02*
D03*
X221457D02*
D03*
X219488D02*
D03*
X217520D02*
D03*
X215551D02*
D03*
X213583D02*
D03*
X211614D02*
D03*
Y143602D02*
D03*
X213583D02*
D03*
X215551D02*
D03*
X217520D02*
D03*
X219488D02*
D03*
X221457D02*
D03*
X223425D02*
D03*
X225394D02*
D03*
X227362D02*
D03*
X229331D02*
D03*
X231299D02*
D03*
X233268D02*
D03*
D112*
X205807Y116142D02*
D03*
Y118110D02*
D03*
Y120079D02*
D03*
Y122047D02*
D03*
Y124016D02*
D03*
Y125984D02*
D03*
Y127953D02*
D03*
Y129921D02*
D03*
Y131890D02*
D03*
Y133858D02*
D03*
Y135827D02*
D03*
Y137795D02*
D03*
X239075D02*
D03*
Y135827D02*
D03*
Y133858D02*
D03*
Y131890D02*
D03*
Y129921D02*
D03*
Y127953D02*
D03*
Y125984D02*
D03*
Y124016D02*
D03*
Y122047D02*
D03*
Y120079D02*
D03*
Y118110D02*
D03*
Y116142D02*
D03*
D113*
X163386Y37402D02*
D03*
X161417D02*
D03*
X159449D02*
D03*
X157480D02*
D03*
X155512D02*
D03*
X153543D02*
D03*
X151575D02*
D03*
X149606D02*
D03*
X147638D02*
D03*
X145669D02*
D03*
X143701D02*
D03*
X141732D02*
D03*
X139764D02*
D03*
X137795D02*
D03*
X135827D02*
D03*
X133858D02*
D03*
X131890D02*
D03*
X129921D02*
D03*
X127953D02*
D03*
X125984D02*
D03*
X124016D02*
D03*
X122047D02*
D03*
X120079D02*
D03*
X118110D02*
D03*
X116142D02*
D03*
X114173D02*
D03*
X112205D02*
D03*
X110236D02*
D03*
X108268D02*
D03*
X106299D02*
D03*
X104331D02*
D03*
X102362D02*
D03*
X100394D02*
D03*
X98425D02*
D03*
X96457D02*
D03*
X94488D02*
D03*
X92520D02*
D03*
X90551D02*
D03*
X88583D02*
D03*
X86614D02*
D03*
X84646D02*
D03*
X82677D02*
D03*
X80709D02*
D03*
X78740D02*
D03*
X76772D02*
D03*
X74803D02*
D03*
X72835D02*
D03*
X70866D02*
D03*
X68898D02*
D03*
X66929D02*
D03*
D114*
X171653Y26772D02*
D03*
X58661D02*
D03*
D115*
X290748Y170669D02*
D03*
Y168701D02*
D03*
Y166732D02*
D03*
Y164764D02*
D03*
Y162795D02*
D03*
Y160827D02*
D03*
X305709D02*
D03*
Y162795D02*
D03*
Y164764D02*
D03*
Y166732D02*
D03*
Y168701D02*
D03*
Y170669D02*
D03*
D116*
X293307Y158268D02*
D03*
X295276D02*
D03*
X297244D02*
D03*
X299213D02*
D03*
X301181D02*
D03*
X303150D02*
D03*
Y173228D02*
D03*
X301181D02*
D03*
X299213D02*
D03*
X297244D02*
D03*
X295276D02*
D03*
X293307D02*
D03*
D117*
X298228Y165748D02*
D03*
D118*
X173228Y185039D02*
D03*
X181102D02*
D03*
X188976D02*
D03*
X196850D02*
D03*
X204724D02*
D03*
Y228346D02*
D03*
X196850D02*
D03*
X188976D02*
D03*
X181102D02*
D03*
X173228D02*
D03*
D119*
X63091Y70669D02*
D03*
X60532D02*
D03*
X57973D02*
D03*
X55413D02*
D03*
X52854D02*
D03*
X50295D02*
D03*
X47736D02*
D03*
X45177D02*
D03*
X63091Y47441D02*
D03*
X60532D02*
D03*
X57973D02*
D03*
X55413D02*
D03*
X52854D02*
D03*
X50295D02*
D03*
X47736D02*
D03*
X45177D02*
D03*
D120*
X7579Y135236D02*
D03*
X25492D02*
D03*
D121*
X180512Y163976D02*
D03*
Y160236D02*
D03*
Y156496D02*
D03*
X191142D02*
D03*
Y163976D02*
D03*
D122*
X321850Y130118D02*
D03*
X327756D02*
D03*
X333661D02*
D03*
X339567D02*
D03*
D123*
X330709Y153347D02*
D03*
D124*
X116339Y68602D02*
D03*
Y66043D02*
D03*
Y63484D02*
D03*
Y60925D02*
D03*
Y58366D02*
D03*
Y55807D02*
D03*
Y53248D02*
D03*
Y50689D02*
D03*
Y48130D02*
D03*
Y45571D02*
D03*
X139567Y68602D02*
D03*
Y66043D02*
D03*
Y63484D02*
D03*
Y60925D02*
D03*
Y58366D02*
D03*
Y55807D02*
D03*
Y53248D02*
D03*
Y50689D02*
D03*
Y48130D02*
D03*
Y45571D02*
D03*
D125*
X200197Y239173D02*
D03*
X203937D02*
D03*
X207677D02*
D03*
Y249803D02*
D03*
X200197D02*
D03*
D126*
X176575Y254331D02*
D03*
X179134D02*
D03*
X181693D02*
D03*
X174016D02*
D03*
X184252D02*
D03*
D127*
X170472Y235827D02*
D03*
X301279Y131398D02*
D03*
X293406D02*
D03*
X285531D02*
D03*
X277658D02*
D03*
X321240Y211811D02*
D03*
X316240Y201811D02*
D03*
X311240Y211811D02*
D03*
X306240Y201811D02*
D03*
X301240Y211811D02*
D03*
X296240Y201811D02*
D03*
X291240Y211811D02*
D03*
X286240Y201811D02*
D03*
X329035Y256890D02*
D03*
X319193D02*
D03*
X287402D02*
D03*
X276870D02*
D03*
D128*
X15748Y47244D02*
D03*
X330709Y169291D02*
D03*
X15748Y259842D02*
D03*
D129*
X139764Y201772D02*
D03*
X147638D02*
D03*
X84646D02*
D03*
X92520D02*
D03*
D130*
X47244Y116142D02*
D03*
Y96457D02*
D03*
X171260Y116142D02*
D03*
Y96457D02*
D03*
X12500Y81496D02*
D03*
Y97244D02*
D03*
Y89370D02*
D03*
X35827Y222835D02*
D03*
X16142D02*
D03*
D131*
X5748Y4921D02*
D03*
X15748D02*
D03*
X25748D02*
D03*
D132*
X309154Y131398D02*
D03*
D133*
X224410Y37402D02*
D03*
X204724Y17717D02*
D03*
Y7874D02*
D03*
X244094Y17717D02*
D03*
Y7874D02*
D03*
D134*
X224410Y17717D02*
D03*
D135*
X244094Y37402D02*
D03*
X204724D02*
D03*
X234252D02*
D03*
X214567D02*
D03*
D136*
X334449Y225984D02*
D03*
X273031D02*
D03*
X326240Y237992D02*
D03*
X281240D02*
D03*
D137*
X137795Y224410D02*
D03*
Y248031D02*
D03*
D138*
X119291Y236221D02*
D03*
D139*
X12500Y105118D02*
D03*
D140*
X169291Y258465D02*
D03*
X188976D02*
D03*
D141*
X163878Y269291D02*
D03*
X194390D02*
D03*
D142*
X164469Y254331D02*
D03*
X193799D02*
D03*
M02*
